<?xml version="1.0" encoding="utf-8"?>
<!-- Generator: Adobe Illustrator 28.2.0, SVG Export Plug-In . SVG Version: 6.00 Build 0)  -->
<svg version="1.1" id="Ebene_1" xmlns="http://www.w3.org/2000/svg" xmlns:xlink="http://www.w3.org/1999/xlink" x="0px" y="0px"
	 viewBox="0 0 425.2 283.46" style="enable-background:new 0 0 425.2 283.46;" xml:space="preserve">
<style type="text/css">
	.st0{fill:#86171D;}
	.st1{fill:#86171C;}
</style>
<g>
	<path class="st0" d="M162.84,207.31c0,0.43-0.99,0.93-2.98,1.49c0.18,2.35,0.27,4.35,0.27,5.99c0,2.84-0.36,4.27-1.08,4.27
		c-0.38,0-0.69-0.24-0.91-0.71c-0.23-0.47-0.41-1.3-0.54-2.47c-0.16-2.17-0.33-4.29-0.51-6.37c-1.02,0.27-1.94,0.51-2.78,0.73
		c-0.84,0.21-2.1,0.56-3.79,1.03c-1.99,5.19-3.16,7.79-3.52,7.79c-0.36,0-0.75-0.22-1.17-0.66c-0.42-0.44-0.63-0.91-0.63-1.41
		c0-0.23,0.64-1.83,1.93-4.81h-0.24c-0.45,0-0.85-0.15-1.2-0.44c-0.35-0.29-0.52-0.66-0.52-1.1s1.12-1.02,3.35-1.74
		c0.36-0.81,0.65-1.55,0.88-2.2c0.52-1.29,1.24-3.05,2.17-5.28c0.93-2.23,1.51-3.66,1.76-4.28s0.68-1.15,1.3-1.59
		c0.62-0.44,1.22-0.66,1.81-0.66c0.7,0,1.33,1.12,1.88,3.35c0.55,2.23,1,5,1.34,8.3c0.63-0.07,1.19-0.1,1.66-0.1
		C162.34,206.43,162.84,206.72,162.84,207.31z M151.77,208.02c1.6-0.43,3.3-0.79,5.08-1.08c-0.41-3.86-0.8-6.76-1.19-8.7
		C154.65,200.56,153.35,203.82,151.77,208.02z"/>
	<path class="st0" d="M174,204.99c1.37-1.79,2.48-2.69,3.35-2.69c0.87,0,1.69,0.46,2.47,1.39s1.17,1.91,1.17,2.95
		c0,1.62-0.37,3.61-1.12,5.96c-1.35,4.33-2.57,6.5-3.66,6.5c-0.5,0-0.75-0.34-0.75-1.02c0-0.47,0.24-1.44,0.73-2.9
		c0.49-1.46,0.94-2.89,1.35-4.3c0.42-1.41,0.63-2.47,0.63-3.18s-0.11-1.24-0.32-1.58c-0.21-0.34-0.43-0.51-0.64-0.51
		c-0.21,0-0.44,0.07-0.66,0.2c-0.23,0.14-0.48,0.36-0.76,0.68c-0.28,0.32-0.55,0.63-0.8,0.93c-0.25,0.31-0.56,0.74-0.93,1.3
		c-0.37,0.56-0.68,1.04-0.93,1.44c-0.25,0.4-0.61,0.97-1.08,1.71c-0.47,0.74-0.84,1.31-1.08,1.69c-0.25,0.38-0.58,0.9-0.98,1.56
		c-0.41,0.65-0.73,1.16-0.96,1.52c-0.24,0.36-0.5,0.76-0.8,1.19c-0.56,0.83-1.01,1.25-1.34,1.25s-0.71-0.25-1.13-0.76
		c-0.43-0.51-0.64-0.95-0.64-1.34c0-0.11,0.08-0.42,0.24-0.91c0.43-1.31,0.9-2.93,1.42-4.86c0.52-1.93,0.8-4.12,0.85-6.59
		c0.07-1.65,0.31-2.47,0.71-2.47c0.5,0,0.99,0.26,1.49,0.78s0.75,1.09,0.75,1.71s-0.19,1.82-0.56,3.59s-0.81,3.43-1.3,4.96
		C170.87,209.52,172.64,206.79,174,204.99z"/>
	<path class="st0" d="M187.6,202.3c0.43,0,0.83,0.26,1.22,0.78c0.38,0.52,0.58,1.03,0.58,1.52c0,0.5-0.33,1.98-0.98,4.45
		s-1.48,5.24-2.47,8.31c-0.38,1.13-0.87,1.69-1.46,1.69c-0.32,0-0.59-0.13-0.81-0.39c-0.23-0.26-0.34-0.55-0.34-0.88
		s0.08-0.85,0.25-1.56c0.17-0.71,0.42-1.66,0.75-2.84c0.33-1.19,0.59-2.15,0.78-2.9c0.19-0.75,0.39-1.59,0.59-2.52
		c0.2-0.94,0.37-1.69,0.49-2.27c0.12-0.58,0.27-1.16,0.42-1.74C186.93,202.85,187.26,202.3,187.6,202.3z M187.77,197.49
		c0-0.45,0.18-0.88,0.54-1.29c0.36-0.41,0.73-0.61,1.1-0.61s0.82,0.46,1.34,1.37c0.52,0.91,0.78,1.68,0.78,2.29
		c0,0.23-0.1,0.43-0.3,0.61c-0.2,0.18-0.42,0.27-0.64,0.27c-0.54,0-1.15-0.33-1.81-0.98C188.1,198.5,187.77,197.94,187.77,197.49z"
		/>
	<path class="st0" d="M213.4,202.3c0.68,0,1.28,0.47,1.81,1.41c0.53,0.94,0.79,2,0.79,3.18c0,1.18-0.21,2.73-0.63,4.62
		c-0.42,1.9-0.98,3.63-1.68,5.21c-0.7,1.58-1.39,2.37-2.07,2.37c-0.47,0-0.71-0.31-0.71-0.93c0-0.62,0.39-2.14,1.17-4.57
		c0.78-2.43,1.17-4.36,1.17-5.79s-0.23-2.15-0.68-2.15c-0.56,0-1.21,0.5-1.95,1.49c-0.73,0.99-1.52,2.19-2.35,3.59
		c-0.84,1.4-1.29,2.15-1.35,2.25s-0.15,0.24-0.25,0.42s-0.21,0.37-0.34,0.58c-0.12,0.2-0.44,0.81-0.95,1.83s-0.95,1.81-1.34,2.39
		c-0.38,0.58-0.72,0.86-1,0.86c-0.28,0-0.59-0.18-0.93-0.54c-0.34-0.36-0.51-0.7-0.51-1.02c0-0.32,0.2-0.97,0.61-1.96
		c1.17-2.93,1.76-5.67,1.76-8.2c0-0.47-0.1-0.88-0.3-1.2s-0.43-0.49-0.68-0.49c-0.25,0-0.51,0.11-0.78,0.32
		c-0.27,0.21-0.61,0.6-1.02,1.15c-0.41,0.55-0.77,1.08-1.08,1.58c-0.32,0.5-0.8,1.27-1.44,2.32s-1.13,1.83-1.46,2.34
		c-0.33,0.51-0.71,1.1-1.13,1.76c-0.43,0.67-0.76,1.18-1,1.54c-0.24,0.36-0.5,0.76-0.8,1.19c-0.61,0.83-1.06,1.25-1.34,1.25
		c-0.28,0-0.65-0.25-1.1-0.76c-0.45-0.51-0.68-0.89-0.68-1.15s0.04-0.58,0.14-0.97c0.09-0.38,0.19-0.76,0.29-1.12
		s0.26-0.9,0.47-1.61c0.21-0.71,0.46-1.55,0.75-2.51c0.28-0.96,0.5-2.28,0.64-3.96c0.15-1.68,0.25-2.91,0.32-3.69
		c0.07-0.78,0.26-1.17,0.58-1.17c0.5,0,0.99,0.26,1.47,0.78c0.49,0.52,0.73,1.04,0.73,1.56c0,1.99-0.75,5.26-2.23,9.82
		c2.53-4.74,4.12-7.55,4.77-8.43c0.65-0.88,1.22-1.59,1.69-2.13c0.88-0.97,1.77-1.46,2.68-1.46c0.54,0,1.19,0.47,1.95,1.41
		c0.76,0.94,1.13,1.88,1.13,2.83c0,0.95-0.14,2.12-0.41,3.52C208.82,204.88,211.24,202.3,213.4,202.3z"/>
	<path class="st0" d="M230.27,203.84c0.86,1.03,1.29,1.95,1.29,2.78c0,0.82-0.28,1.67-0.85,2.52c0.27,0.34,0.41,0.63,0.41,0.88
		c0,0.63-0.14,1.72-0.42,3.25c-0.28,1.54-0.45,2.54-0.51,3.01c-0.06,0.47-0.11,0.85-0.15,1.13c-0.05,0.28-0.1,0.56-0.17,0.83
		c-0.09,0.56-0.29,0.85-0.61,0.85c-0.41,0-0.74-0.36-1-1.07c-0.26-0.71-0.41-1.63-0.46-2.76c-2.01,2.55-3.87,3.83-5.59,3.83
		c-1.04,0-2.06-0.45-3.06-1.34c-1-0.89-1.51-1.81-1.51-2.76c0-1.35,0.5-3.03,1.49-5.03c0.99-2,2.28-3.78,3.86-5.33
		c1.58-1.56,3.07-2.34,4.47-2.34C228.47,202.3,229.41,202.81,230.27,203.84z M229.01,208.26c0-2.1-0.42-3.15-1.25-3.15
		c-0.88,0-1.91,0.63-3.08,1.88c-1.17,1.25-2.17,2.67-2.98,4.25s-1.22,2.83-1.22,3.76c0,0.38,0.16,0.69,0.47,0.93
		c0.32,0.24,0.69,0.36,1.12,0.36c1.06,0,2.26-0.72,3.59-2.15s2.26-3.18,2.78-5.23c0.07-0.34,0.26-0.54,0.58-0.61V208.26z"/>
	<path class="st0" d="M238.12,215.71c0,0.43,0.25,0.64,0.75,0.64c0.86,0,1.9-0.24,3.13-0.73c1.23-0.48,1.91-0.73,2.05-0.73
		c0.41,0,0.61,0.21,0.61,0.64c0,0.66-0.67,1.41-2.02,2.27c-1.34,0.86-2.56,1.29-3.66,1.29s-2-0.3-2.73-0.9
		c-0.72-0.6-1.08-1.21-1.08-1.85s0.14-1.44,0.41-2.42c0.27-0.98,0.66-2.28,1.17-3.89c0.51-1.61,0.91-2.95,1.2-4.01
		c-1.06,0.25-1.77,0.37-2.13,0.37c-0.36,0-0.72-0.19-1.07-0.56c-0.35-0.37-0.52-0.73-0.52-1.07c0-0.54,1.47-1.06,4.4-1.56
		c0.41-1.87,0.61-3.53,0.61-4.98c0-0.68,0.23-1.02,0.68-1.02c0.38,0,0.86,0.24,1.42,0.73s0.85,1.03,0.85,1.64
		c0,0.61-0.19,1.68-0.58,3.22c1.29-0.11,2.31-0.17,3.08-0.17c1.35,0,2.03,0.29,2.03,0.88c0,0.34-0.37,0.62-1.1,0.85
		c-0.73,0.23-2.27,0.58-4.62,1.05c-0.47,1.78-1.07,3.82-1.79,6.11C238.48,213.82,238.12,215.21,238.12,215.71z"/>
	<path class="st0" d="M251.6,202.3c0.43,0,0.83,0.26,1.22,0.78c0.38,0.52,0.58,1.03,0.58,1.52c0,0.5-0.33,1.98-0.98,4.45
		c-0.66,2.47-1.48,5.24-2.47,8.31c-0.38,1.13-0.87,1.69-1.46,1.69c-0.32,0-0.59-0.13-0.81-0.39c-0.23-0.26-0.34-0.55-0.34-0.88
		s0.08-0.85,0.25-1.56c0.17-0.71,0.42-1.66,0.75-2.84c0.33-1.19,0.59-2.15,0.78-2.9c0.19-0.75,0.39-1.59,0.59-2.52
		c0.2-0.94,0.37-1.69,0.49-2.27c0.12-0.58,0.27-1.16,0.42-1.74C250.93,202.85,251.26,202.3,251.6,202.3z M251.77,197.49
		c0-0.45,0.18-0.88,0.54-1.29c0.36-0.41,0.73-0.61,1.1-0.61c0.37,0,0.82,0.46,1.34,1.37s0.78,1.68,0.78,2.29
		c0,0.23-0.1,0.43-0.3,0.61s-0.42,0.27-0.64,0.27c-0.54,0-1.15-0.33-1.81-0.98C252.1,198.5,251.77,197.94,251.77,197.49z"/>
	<path class="st0" d="M256.83,208.36c0.78-1.76,1.81-3.21,3.08-4.35c1.28-1.14,2.58-1.71,3.93-1.71c1.34,0,2.47,0.57,3.37,1.71
		c0.9,1.14,1.35,2.53,1.35,4.17c0,1.64-0.39,3.31-1.18,5.01c-0.79,1.7-1.88,3.12-3.27,4.23c-1.39,1.12-2.86,1.68-4.42,1.68
		c-1.15,0-2.11-0.53-2.88-1.59c-0.77-1.06-1.15-2.41-1.15-4.05S256.05,210.12,256.83,208.36z M265.72,208.06
		c0-0.77-0.12-1.5-0.37-2.18c-0.25-0.69-0.61-1.19-1.08-1.51c-1.56,0.43-2.89,1.63-4.01,3.61c-1.12,1.98-1.68,3.83-1.68,5.57
		s0.43,2.82,1.29,3.25c1.63-0.32,3.01-1.43,4.15-3.34C265.15,211.55,265.72,209.75,265.72,208.06z"/>
	<path class="st0" d="M279.45,204.99c1.37-1.79,2.48-2.69,3.35-2.69s1.69,0.46,2.47,1.39s1.17,1.91,1.17,2.95
		c0,1.62-0.37,3.61-1.12,5.96c-1.35,4.33-2.57,6.5-3.66,6.5c-0.5,0-0.75-0.34-0.75-1.02c0-0.47,0.24-1.44,0.73-2.9
		c0.49-1.46,0.94-2.89,1.36-4.3c0.42-1.41,0.63-2.47,0.63-3.18s-0.11-1.24-0.32-1.58c-0.21-0.34-0.43-0.51-0.64-0.51
		c-0.21,0-0.44,0.07-0.66,0.2c-0.23,0.14-0.48,0.36-0.76,0.68s-0.55,0.63-0.8,0.93c-0.25,0.31-0.56,0.74-0.93,1.3
		c-0.37,0.56-0.68,1.04-0.93,1.44c-0.25,0.4-0.61,0.97-1.08,1.71c-0.47,0.74-0.83,1.31-1.08,1.69c-0.25,0.38-0.58,0.9-0.98,1.56
		c-0.41,0.65-0.73,1.16-0.96,1.52c-0.24,0.36-0.5,0.76-0.8,1.19c-0.56,0.83-1.01,1.25-1.34,1.25s-0.71-0.25-1.13-0.76
		c-0.43-0.51-0.64-0.95-0.64-1.34c0-0.11,0.08-0.42,0.24-0.91c0.43-1.31,0.9-2.93,1.42-4.86c0.52-1.93,0.8-4.12,0.85-6.59
		c0.07-1.65,0.3-2.47,0.71-2.47c0.5,0,0.99,0.26,1.49,0.78c0.5,0.52,0.75,1.09,0.75,1.71s-0.19,1.82-0.56,3.59
		c-0.37,1.77-0.81,3.43-1.3,4.96C276.32,209.52,278.09,206.79,279.45,204.99z"/>
	<path class="st0" d="M298.57,202.3c0.77,0,1.49,0.42,2.17,1.27c0.68,0.85,1.02,1.59,1.02,2.22c0,0.38-0.18,0.58-0.54,0.58
		c-0.25,0-0.63-0.2-1.15-0.59c-0.52-0.39-1.05-0.59-1.59-0.59s-1.39,0.32-2.56,0.95c-1.16,0.63-1.74,1.3-1.74,2
		c0,0.52,1.04,1.41,3.12,2.68c0.79,0.5,1.51,1.13,2.15,1.91c0.64,0.78,0.96,1.61,0.96,2.51c0,0.89-0.62,1.76-1.85,2.61
		s-2.66,1.27-4.3,1.27s-3.08-0.39-4.33-1.19c-1.25-0.79-1.88-1.54-1.88-2.24c0-0.29,0.07-0.52,0.22-0.69
		c0.15-0.17,0.33-0.25,0.56-0.25c0.22,0,0.54,0.15,0.95,0.44c1.22,0.88,2.49,1.32,3.81,1.32c1.32,0,2.27-0.15,2.86-0.46
		c0.59-0.31,0.88-0.71,0.88-1.22s-0.33-1.05-0.98-1.62c-0.66-0.58-1.37-1.09-2.15-1.54c-0.78-0.45-1.5-1-2.15-1.66
		c-0.66-0.66-0.98-1.32-0.98-2c0-1.2,0.94-2.44,2.83-3.74C295.76,202.95,297.33,202.3,298.57,202.3z"/>
	<path class="st0" d="M313,202.3c0.77,0,1.49,0.42,2.17,1.27c0.68,0.85,1.02,1.59,1.02,2.22c0,0.38-0.18,0.58-0.54,0.58
		c-0.25,0-0.63-0.2-1.15-0.59c-0.52-0.39-1.05-0.59-1.59-0.59s-1.39,0.32-2.56,0.95c-1.16,0.63-1.74,1.3-1.74,2
		c0,0.52,1.04,1.41,3.12,2.68c0.79,0.5,1.51,1.13,2.15,1.91c0.64,0.78,0.96,1.61,0.96,2.51c0,0.89-0.62,1.76-1.85,2.61
		s-2.66,1.27-4.3,1.27s-3.08-0.39-4.33-1.19c-1.25-0.79-1.88-1.54-1.88-2.24c0-0.29,0.07-0.52,0.22-0.69
		c0.15-0.17,0.33-0.25,0.56-0.25c0.22,0,0.54,0.15,0.95,0.44c1.22,0.88,2.49,1.32,3.81,1.32c1.32,0,2.27-0.15,2.86-0.46
		c0.59-0.31,0.88-0.71,0.88-1.22s-0.33-1.05-0.98-1.62c-0.66-0.58-1.37-1.09-2.15-1.54c-0.78-0.45-1.5-1-2.15-1.66
		c-0.66-0.66-0.98-1.32-0.98-2c0-1.2,0.94-2.44,2.83-3.74C310.19,202.95,311.75,202.3,313,202.3z"/>
	<path class="st0" d="M321.53,215.71c0,0.43,0.25,0.64,0.75,0.64c0.86,0,1.9-0.24,3.13-0.73c1.23-0.48,1.91-0.73,2.05-0.73
		c0.41,0,0.61,0.21,0.61,0.64c0,0.66-0.67,1.41-2.02,2.27c-1.34,0.86-2.56,1.29-3.66,1.29s-2-0.3-2.73-0.9
		c-0.72-0.6-1.08-1.21-1.08-1.85s0.14-1.44,0.41-2.42c0.27-0.98,0.66-2.28,1.17-3.89c0.51-1.61,0.91-2.95,1.2-4.01
		c-1.06,0.25-1.77,0.37-2.13,0.37c-0.36,0-0.72-0.19-1.07-0.56c-0.35-0.37-0.52-0.73-0.52-1.07c0-0.54,1.47-1.06,4.4-1.56
		c0.41-1.87,0.61-3.53,0.61-4.98c0-0.68,0.23-1.02,0.68-1.02c0.38,0,0.86,0.24,1.42,0.73s0.85,1.03,0.85,1.64
		c0,0.61-0.19,1.68-0.58,3.22c1.29-0.11,2.31-0.17,3.08-0.17c1.35,0,2.03,0.29,2.03,0.88c0,0.34-0.37,0.62-1.1,0.85
		c-0.73,0.23-2.27,0.58-4.62,1.05c-0.47,1.78-1.07,3.82-1.79,6.11C321.89,213.82,321.53,215.21,321.53,215.71z"/>
	<path class="st0" d="M343.1,202.5c0.09-0.14,0.29-0.2,0.59-0.2s0.68,0.29,1.12,0.88c0.44,0.59,0.66,1.15,0.66,1.69
		c0,0.29-0.5,2.03-1.49,5.22c-0.99,3.18-1.76,5.71-2.3,7.58c-0.27,0.95-0.66,1.42-1.15,1.42c-0.29,0-0.54-0.12-0.75-0.37
		c-0.2-0.25-0.3-0.7-0.3-1.35c0-0.65,0.26-1.84,0.78-3.56c-0.95,1.54-1.98,2.8-3.08,3.79c-1.11,0.99-2.12,1.49-3.03,1.49
		s-1.78-0.43-2.59-1.29c-0.81-0.86-1.22-1.74-1.22-2.64c0-2.14,0.63-4.83,1.88-8.04c1.25-3.22,2.3-4.83,3.13-4.83
		c0.41,0,0.76,0.19,1.07,0.56c0.31,0.37,0.46,0.8,0.46,1.27c0,0.2-0.31,0.93-0.92,2.18s-1.22,2.72-1.83,4.4
		c-0.61,1.68-0.92,3.16-0.92,4.42c0,0.36,0.11,0.66,0.34,0.9c0.23,0.24,0.5,0.36,0.81,0.36c0.86,0,1.88-0.76,3.07-2.27
		c1.18-1.51,2.26-3.27,3.23-5.28c0.97-2.01,1.69-3.87,2.17-5.59C342.92,202.89,343.01,202.64,343.1,202.5z"/>
	<path class="st0" d="M361.62,192.82c0.36,0,0.81,0.33,1.34,1c0.53,0.67,0.8,1.29,0.8,1.88s-0.28,2.25-0.85,5
		c-0.56,2.74-1.22,5.58-1.96,8.52c-1.62,6.59-2.7,9.89-3.22,9.89c-0.32,0-0.66-0.2-1.03-0.59c-0.37-0.39-0.56-0.74-0.56-1.03
		c0-0.29,0.08-0.88,0.24-1.76c-2.21,2.26-4.14,3.39-5.79,3.39c-0.99,0-1.89-0.45-2.69-1.35s-1.2-1.84-1.2-2.81
		c0-1.4,0.38-3.07,1.13-5c0.76-1.93,1.85-3.69,3.27-5.27c1.42-1.58,2.93-2.37,4.54-2.37c1.6,0,2.72,0.96,3.35,2.88
		c1.15-4.79,1.78-8.57,1.9-11.34C360.88,193.16,361.13,192.82,361.62,192.82z M357.9,209.45c0-1.22-0.21-2.25-0.63-3.08
		c-0.42-0.83-0.92-1.25-1.51-1.25c-0.97,0-1.96,0.6-2.98,1.79c-1.02,1.2-1.82,2.57-2.42,4.11c-0.6,1.55-0.9,2.88-0.9,4.01
		c0,0.41,0.15,0.73,0.44,0.98c0.29,0.25,0.64,0.37,1.05,0.37c0.88,0,2.07-0.63,3.57-1.9c1.5-1.26,2.59-2.75,3.27-4.47l0.1-0.41
		V209.45z"/>
	<path class="st0" d="M368.19,202.3c0.43,0,0.83,0.26,1.22,0.78c0.38,0.52,0.58,1.03,0.58,1.52c0,0.5-0.33,1.98-0.98,4.45
		c-0.66,2.47-1.48,5.24-2.47,8.31c-0.38,1.13-0.87,1.69-1.46,1.69c-0.32,0-0.59-0.13-0.81-0.39c-0.23-0.26-0.34-0.55-0.34-0.88
		s0.08-0.85,0.25-1.56c0.17-0.71,0.42-1.66,0.75-2.84c0.33-1.19,0.59-2.15,0.78-2.9c0.19-0.75,0.39-1.59,0.59-2.52
		c0.2-0.94,0.37-1.69,0.49-2.27c0.12-0.58,0.27-1.16,0.42-1.74C367.53,202.85,367.86,202.3,368.19,202.3z M368.36,197.49
		c0-0.45,0.18-0.88,0.54-1.29c0.36-0.41,0.73-0.61,1.1-0.61c0.37,0,0.82,0.46,1.34,1.37s0.78,1.68,0.78,2.29
		c0,0.23-0.1,0.43-0.3,0.61s-0.42,0.27-0.64,0.27c-0.54,0-1.15-0.33-1.81-0.98C368.7,198.5,368.36,197.94,368.36,197.49z"/>
	<path class="st0" d="M373.43,208.36c0.78-1.76,1.81-3.21,3.08-4.35c1.28-1.14,2.58-1.71,3.93-1.71c1.34,0,2.47,0.57,3.37,1.71
		c0.9,1.14,1.35,2.53,1.35,4.17c0,1.64-0.39,3.31-1.18,5.01c-0.79,1.7-1.88,3.12-3.27,4.23c-1.39,1.12-2.86,1.68-4.42,1.68
		c-1.15,0-2.11-0.53-2.88-1.59c-0.77-1.06-1.15-2.41-1.15-4.05S372.65,210.12,373.43,208.36z M382.32,208.06
		c0-0.77-0.12-1.5-0.37-2.18c-0.25-0.69-0.61-1.19-1.08-1.51c-1.56,0.43-2.89,1.63-4.01,3.61c-1.12,1.98-1.68,3.83-1.68,5.57
		s0.43,2.82,1.29,3.25c1.63-0.32,3.01-1.43,4.15-3.34C381.74,211.55,382.32,209.75,382.32,208.06z"/>
</g>
<g>
	<g>
		<path class="st1" d="M106.77,129.52C95.58,86.7,60.35,59.66,55.49,62.89c-3.7,2.45,11.88,21.33,5.74,46.45
			c-2.89,11.83-10.65,25.25-12.25,24.67c-0.55-0.2-0.4-2.05-0.17-3.62c1.93-13.49-4.29-25.1-6.04-28.81
			c-2.75-5.85-9.13-16.17-13.19-15.08c-3.38,0.91-2.47,9.05-5.1,20.08c-3.55,14.92-10.18,21.46-14.49,29.5
			c-10.17,18.96-9.7,53.98,11.73,72.46c20.08,17.31,53.5,15.74,72.98-0.86C121.29,185.01,110.46,143.62,106.77,129.52z M76,145.64
			c-0.18-5,6.13-7.09,9.01-3.09c0.36,0.64,0.72,1.27,0.81,2c0.27,1.36,0,8.09-0.09,9.46c0,4.46-5.23,6.82-8.38,3.64
			c-0.72-0.73-1.26-1.73-1.44-2.64C75.73,153.73,76.09,146.91,76,145.64z M27.28,145.64c-0.18-5,6.18-7.09,9.08-3.09
			c0.36,0.64,0.73,1.27,0.82,2c0.27,1.36,0,8.09-0.09,9.46c0,4.46-5.27,6.82-8.45,3.64c-0.72-0.73-1.27-1.73-1.45-2.64
			C27.01,153.73,27.37,146.91,27.28,145.64z M84.43,185.33c-7.93,11.95-24.08,12.32-25.79,12.34c-2.48,0.02-15.5-0.15-24.33-10.01
			c-1.25-1.4-8.27-9.23-5.87-13.8c2.17-4.13,9.96-1.68,29.93-1.72c18.77-0.05,26.84-2.25,29.16,2.07
			C89.45,177.77,85.97,183.02,84.43,185.33z"/>
	</g>
	<g>
		<path class="st0" d="M131.2,58.69c2.39-0.41,6.02-0.61,10.87-0.61c4.85,0,8.57,0.4,11.14,1.19c2.57,0.79,3.86,1.91,3.86,3.35
			c0,0.68-0.26,1.16-0.78,1.46c-0.52,0.29-0.97,0.52-1.35,0.68c-0.38,0.16-0.9,0.3-1.56,0.44c-0.65,0.14-1.25,0.26-1.79,0.37
			c-0.54,0.11-1.25,0.21-2.13,0.3c-0.88,0.09-1.64,0.17-2.27,0.24c-0.63,0.07-1.47,0.16-2.51,0.27c-1.04,0.11-1.99,0.21-2.84,0.3
			c-0.86,0.09-3.12,0.43-6.77,1.02v0.07c0,1.63-0.7,5.94-2.1,12.94c0.59,0.05,1.66,0.07,3.22,0.07s3.6-0.12,6.13-0.37
			c2.53-0.25,4.19-0.37,4.98-0.37c0.79,0,1.46,0.2,2,0.61c0.54,0.41,0.81,0.86,0.81,1.35c0,1.22-0.72,2.3-2.17,3.25
			c-1.45,0.95-3.25,1.69-5.42,2.23c-4.33,1.08-8.15,1.67-11.45,1.76c-1.35,5.73-2.18,9.24-2.47,10.53c-0.29,1.29-0.6,2.52-0.91,3.69
			c-0.59,2.3-1.13,3.45-1.63,3.45c-0.95,0-2.23-1.06-3.86-3.18c-1.63-2.12-2.44-3.7-2.44-4.74c0-1.81,1.12-7.54,3.35-17.2
			c2.24-9.66,3.42-15.74,3.56-18.22v-0.54c0-0.59,0.07-1.08,0.2-1.49C127.36,60.04,128.8,59.09,131.2,58.69z"/>
		<path class="st0" d="M163.03,72.03c1.58,0,2.99,0.9,4.23,2.71c1.24,1.81,1.86,3.54,1.86,5.21c0,0.86-0.78,3.94-2.34,9.25
			c-1.56,5.31-3.1,10.33-4.64,15.07c-0.54,1.76-1.65,2.64-3.32,2.64c-0.99,0-1.86-0.37-2.61-1.12c-0.75-0.75-1.12-1.72-1.12-2.91
			c0-1.2,0.58-4.18,1.73-8.94c1.15-4.76,2.03-8.83,2.64-12.19c0.61-3.36,1.17-5.82,1.69-7.38
			C161.69,72.81,162.31,72.03,163.03,72.03z M162.01,63.56c0-1.17,0.53-2.38,1.59-3.62c1.06-1.24,2.1-1.86,3.12-1.86
			c1.02,0,2.22,1.22,3.62,3.66c1.4,2.44,2.1,4.21,2.1,5.32c0,1.11-0.36,1.95-1.08,2.54c-0.72,0.59-1.47,0.88-2.23,0.88
			c-1.31,0-2.82-0.86-4.54-2.57C162.87,66.18,162.01,64.74,162.01,63.56z"/>
		<path class="st0" d="M176.71,83.48l-0.41-7.65c0-2.53,0.79-3.79,2.37-3.79c0.9,0,1.79,0.34,2.68,1.02c0.88,0.68,1.55,1.74,2,3.18
			c1.53-1.35,3.22-2.45,5.05-3.28c1.83-0.83,3.44-1.25,4.84-1.25c3.3,0,4.94,0.79,4.94,2.37c0,0.81-0.15,1.41-0.44,1.79
			c-0.29,0.38-0.52,0.67-0.68,0.85c-0.16,0.18-0.43,0.42-0.81,0.71c-0.38,0.29-0.67,0.51-0.85,0.64c-1.04,0.68-1.78,1.15-2.24,1.42
			c-2.03,1.26-3.77,2.79-5.21,4.57c-1.45,1.78-2.53,4.26-3.25,7.42c-1.22,5.19-2.4,9.06-3.56,11.62c-1.15,2.55-2.44,3.83-3.86,3.83
			s-2.48-0.68-3.18-2.03c-0.7-1.35-1.05-2.63-1.05-3.83c0-1.2,0.44-2.99,1.32-5.38c0.88-2.39,1.49-4.46,1.83-6.2
			C176.54,87.73,176.71,85.73,176.71,83.48z"/>
		<path class="st0" d="M223.34,90.66c-3,1.76-6.08,2.64-9.25,2.64c-3.16,0-5.76-0.23-7.79-0.68c-0.41,1.22-0.61,2.44-0.61,3.66
			c0,1.22,0.2,2.09,0.61,2.61c0.41,0.52,1.42,0.78,3.05,0.78c3.39,0,6.29-0.32,8.7-0.95c2.42-0.63,3.67-0.95,3.76-0.95
			c1.85,0,2.78,0.61,2.78,1.83c0,1.76-1.46,3.43-4.37,5.01c-2.91,1.58-6.28,2.37-10.09,2.37c-3.82,0-6.87-1.2-9.18-3.59
			c-2.3-2.39-3.45-5.23-3.45-8.5c0-3.27,0.96-6.69,2.88-10.26c1.92-3.57,4.32-6.56,7.21-8.97c2.89-2.42,5.77-3.62,8.64-3.62
			c2.87,0,5.52,1.41,7.96,4.23c2.44,2.82,3.66,5.63,3.66,8.43C227.85,86.91,226.34,88.9,223.34,90.66z M218.57,81.65
			c-0.95-0.86-1.84-1.29-2.67-1.29c-0.84,0-1.91,0.6-3.22,1.79c-1.31,1.2-2.55,2.74-3.73,4.64c0.41,0.05,0.99,0.07,1.76,0.07
			c6.19,0,9.28-1.08,9.28-3.25C219.99,83.16,219.52,82.51,218.57,81.65z"/>
		<path class="st0" d="M243.09,58.69c2.39-0.41,6.02-0.61,10.87-0.61c4.85,0,8.57,0.4,11.14,1.19c2.57,0.79,3.86,1.91,3.86,3.35
			c0,0.68-0.26,1.16-0.78,1.46c-0.52,0.29-0.97,0.52-1.35,0.68c-0.38,0.16-0.9,0.3-1.56,0.44c-0.66,0.14-1.25,0.26-1.79,0.37
			c-0.54,0.11-1.25,0.21-2.13,0.3c-0.88,0.09-1.64,0.17-2.27,0.24c-0.63,0.07-1.47,0.16-2.51,0.27c-1.04,0.11-1.99,0.21-2.84,0.3
			c-0.86,0.09-3.12,0.43-6.77,1.02v0.07c0,1.63-0.7,5.94-2.1,12.94c0.59,0.05,1.66,0.07,3.22,0.07s3.6-0.12,6.13-0.37
			c2.53-0.25,4.19-0.37,4.98-0.37s1.46,0.2,2,0.61c0.54,0.41,0.81,0.86,0.81,1.35c0,1.22-0.72,2.3-2.17,3.25
			c-1.45,0.95-3.25,1.69-5.42,2.23c-4.33,1.08-8.15,1.67-11.45,1.76c-1.35,5.73-2.18,9.24-2.47,10.53c-0.29,1.29-0.6,2.52-0.91,3.69
			c-0.59,2.3-1.13,3.45-1.62,3.45c-0.95,0-2.24-1.06-3.86-3.18c-1.62-2.12-2.44-3.7-2.44-4.74c0-1.81,1.12-7.54,3.35-17.2
			c2.23-9.66,3.42-15.74,3.56-18.22v-0.54c0-0.59,0.07-1.08,0.2-1.49C239.25,60.04,240.69,59.09,243.09,58.69z"/>
		<path class="st0" d="M270.99,83.48l-0.41-7.65c0-2.53,0.79-3.79,2.37-3.79c0.9,0,1.79,0.34,2.67,1.02c0.88,0.68,1.55,1.74,2,3.18
			c1.53-1.35,3.22-2.45,5.05-3.28c1.83-0.83,3.44-1.25,4.84-1.25c3.3,0,4.94,0.79,4.94,2.37c0,0.81-0.15,1.41-0.44,1.79
			c-0.29,0.38-0.52,0.67-0.68,0.85c-0.16,0.18-0.43,0.42-0.81,0.71c-0.38,0.29-0.67,0.51-0.85,0.64c-1.04,0.68-1.78,1.15-2.23,1.42
			c-2.03,1.26-3.77,2.79-5.22,4.57c-1.45,1.78-2.53,4.26-3.25,7.42c-1.22,5.19-2.4,9.06-3.56,11.62c-1.15,2.55-2.44,3.83-3.86,3.83
			c-1.42,0-2.48-0.68-3.18-2.03c-0.7-1.35-1.05-2.63-1.05-3.83c0-1.2,0.44-2.99,1.32-5.38c0.88-2.39,1.49-4.46,1.83-6.2
			C270.82,87.73,270.99,85.73,270.99,83.48z"/>
		<path class="st0" d="M320.57,87.74c0.81,0.72,1.22,1.38,1.22,1.96c0,0.59-0.27,1.81-0.81,3.66c-0.54,1.85-0.9,3.28-1.08,4.3
			c-0.18,1.02-0.33,1.82-0.44,2.4c-0.11,0.59-0.19,1.05-0.24,1.39c-0.05,0.34-0.12,0.76-0.24,1.25c-0.11,0.5-0.2,0.89-0.27,1.19
			c-0.07,0.29-0.16,0.63-0.27,1.02c-0.11,0.38-0.24,0.68-0.37,0.88c-0.14,0.2-0.29,0.42-0.47,0.64c-0.27,0.36-0.72,0.54-1.35,0.54
			c-0.63,0-1.41-0.63-2.34-1.9c-0.93-1.26-1.61-2.8-2.07-4.61c-4.25,4.33-7.81,6.5-10.7,6.5c-1.94,0-4.04-1.07-6.3-3.22
			c-2.26-2.14-3.39-4.29-3.39-6.43c0-2.14,0.97-5.2,2.91-9.18c1.94-3.97,4.59-7.65,7.96-11.04c3.36-3.39,6.69-5.08,9.99-5.08
			c1.9,0,4.09,1.11,6.57,3.32c2.48,2.21,3.72,4.23,3.72,6.06C322.6,83.24,321.92,85.35,320.57,87.74z M300.86,98.44
			c1.81,0,4.21-1.23,7.21-3.69c3-2.46,4.86-5.56,5.59-9.31c0.04-0.54,0.43-0.86,1.15-0.95c-0.14-2.57-0.57-3.86-1.29-3.86
			c-1.81,0-3.83,1.17-6.06,3.52c-2.24,2.35-4.06,4.85-5.49,7.52c-1.42,2.66-2.13,4.63-2.13,5.89c0,0.36,0.06,0.6,0.17,0.71
			C300.12,98.39,300.41,98.44,300.86,98.44z"/>
		<path class="st0" d="M371.91,72.03c1.76,0,3.23,1.17,4.4,3.52c1.17,2.35,1.76,4.49,1.76,6.43c0,1.94-0.37,4.82-1.12,8.64
			c-0.75,3.82-1.92,7.5-3.52,11.04c-1.6,3.54-3.33,5.32-5.18,5.32c-1.49,0-2.23-1.02-2.23-3.05c0-2.03,0.59-5.35,1.76-9.96
			c1.17-4.61,1.76-7.63,1.76-9.08c0-1.44-0.23-2.17-0.68-2.17c-0.95,0-2.08,1.04-3.39,3.12c-1.31,2.08-2.88,4.85-4.71,8.33
			c-1.83,3.48-2.97,5.71-3.42,6.71c-0.45,0.99-0.82,1.78-1.12,2.37c-0.29,0.59-0.62,1.2-0.98,1.83c-1.45,2.39-3.36,2.39-5.76,0
			c-1.22-1.22-1.83-2.33-1.83-3.32c0-0.18,0.37-1.91,1.12-5.18c0.75-3.27,1.12-7.01,1.12-11.21c0-1.76-0.2-2.64-0.61-2.64
			c-0.54,0-1.17,0.54-1.9,1.63c-0.72,1.08-1.83,3.05-3.32,5.89s-2.78,5.19-3.86,7.04c-3.79,6.46-6.68,9.69-8.67,9.69
			c-0.99,0-2.22-0.83-3.69-2.51c-1.47-1.67-2.2-2.95-2.2-3.83s0.51-3,1.52-6.37c1.02-3.36,1.67-6.94,1.96-10.73
			c0.29-3.79,0.56-6.75,0.81-8.87c0.25-2.12,0.78-3.18,1.59-3.18c1.72,0,3.38,0.71,4.98,2.13c1.6,1.42,2.4,2.72,2.4,3.89
			c0,2.66-0.97,7.31-2.91,13.95c3.16-7.54,5.82-12.64,7.99-15.31c2.3-2.75,4.51-4.13,6.64-4.13c1.17,0,2.63,1.08,4.37,3.25
			c1.74,2.17,2.61,4.19,2.61,6.06c0,1.87-0.02,3.51-0.07,4.91c1.4-3.52,3.52-6.77,6.37-9.75S369.42,72.03,371.91,72.03z"/>
		<path class="st0" d="M407.63,90.66c-3,1.76-6.08,2.64-9.25,2.64c-3.16,0-5.76-0.23-7.79-0.68c-0.41,1.22-0.61,2.44-0.61,3.66
			c0,1.22,0.2,2.09,0.61,2.61c0.41,0.52,1.42,0.78,3.05,0.78c3.39,0,6.29-0.32,8.7-0.95c2.42-0.63,3.67-0.95,3.76-0.95
			c1.85,0,2.78,0.61,2.78,1.83c0,1.76-1.46,3.43-4.37,5.01c-2.91,1.58-6.28,2.37-10.09,2.37c-3.82,0-6.88-1.2-9.18-3.59
			c-2.3-2.39-3.45-5.23-3.45-8.5c0-3.27,0.96-6.69,2.88-10.26c1.92-3.57,4.32-6.56,7.21-8.97c2.89-2.42,5.77-3.62,8.63-3.62
			s5.52,1.41,7.96,4.23c2.44,2.82,3.66,5.63,3.66,8.43C412.14,86.91,410.63,88.9,407.63,90.66z M402.86,81.65
			c-0.95-0.86-1.84-1.29-2.67-1.29c-0.84,0-1.91,0.6-3.22,1.79c-1.31,1.2-2.55,2.74-3.72,4.64c0.41,0.05,0.99,0.07,1.76,0.07
			c6.19,0,9.28-1.08,9.28-3.25C404.28,83.16,403.81,82.51,402.86,81.65z"/>
	</g>
</g>
<g>
	<path class="st0" d="M190.12,158.73c0,3.84-1.83,7.13-5.49,9.89c-3.66,2.75-7.83,4.13-12.53,4.13c-4.7,0-8.48-1.16-11.34-3.49
		c-2.87-2.33-4.3-4.73-4.3-7.21c0-2.48,0.7-3.72,2.1-3.72c1.08,0,2.21,0.54,3.39,1.62c1.17,1.08,2.49,2.17,3.96,3.25
		c1.47,1.08,3.13,1.63,4.98,1.63c1.85,0,3.95-0.77,6.3-2.3c2.35-1.54,3.52-2.82,3.52-3.86c0-1.04-1.28-2.78-3.83-5.22
		c-2.55-2.44-5.1-4.95-7.65-7.55c-2.55-2.6-3.83-4.61-3.83-6.03s0.26-2.97,0.78-4.64c0.52-1.67,1.16-2.82,1.93-3.45
		c2.44-2.39,5.59-4.46,9.45-6.2c3.86-1.74,7.26-2.61,10.19-2.61c1.72,0,3.14,0.73,4.27,2.2c1.13,1.47,1.69,2.99,1.69,4.57
		c0,0.63-0.51,1.14-1.52,1.52c-1.02,0.38-2.48,0.78-4.4,1.19c-1.92,0.41-3.87,0.99-5.86,1.76c-4.61,1.72-6.91,3.16-6.91,4.33
		c0,0.54,0.79,1.52,2.37,2.95c1.58,1.42,3.31,2.91,5.18,4.47c1.87,1.56,3.6,3.52,5.18,5.89
		C189.33,154.23,190.12,156.52,190.12,158.73z"/>
	<path class="st0" d="M211.35,151.05c-0.7,2.19-1.56,4.93-2.57,8.23s-1.52,5.05-1.52,5.25s0.37,0.3,1.12,0.3
		c0.74,0,2.52-0.51,5.32-1.52c2.8-1.02,4.45-1.52,4.95-1.52c1.13,0,1.69,0.77,1.69,2.3c0,1.54-1.51,3.38-4.54,5.52
		c-3.03,2.15-6.19,3.22-9.48,3.22c-1.45,0-3.16-0.79-5.15-2.37c-1.99-1.58-2.98-3.18-2.98-4.81c0-1.35,0.69-4.21,2.07-8.57
		c1.38-4.36,2.31-7.35,2.81-8.97c-1.76,0.5-3.09,0.75-4,0.75c-0.9,0-1.85-0.62-2.84-1.86c-0.99-1.24-1.49-2.43-1.49-3.56
		c0-1.44,3.5-2.66,10.5-3.66c0.86-4.2,1.29-7.83,1.29-10.9c0-1.35,0.68-2.03,2.03-2.03c1.17,0,2.68,0.71,4.5,2.13
		c1.83,1.42,2.74,2.82,2.74,4.2c0,1.38-0.29,3.31-0.88,5.79c2.17-0.09,3.82-0.14,4.95-0.14c3.39,0,5.08,0.77,5.08,2.3
		c0,0.99-0.98,1.84-2.95,2.54c-1.96,0.7-4.98,1.46-9.04,2.27C212.58,147.15,212.05,148.86,211.35,151.05z"/>
	<path class="st0" d="M249.72,139.57c0.36-1.13,1.08-1.69,2.17-1.69c1.08,0,2.34,0.93,3.76,2.78c1.42,1.85,2.13,3.45,2.13,4.81
		c0,0.5-1.04,3.82-3.12,9.96c-2.08,6.14-3.68,11-4.81,14.56c-0.63,1.9-1.69,2.84-3.18,2.84c-0.9,0-1.66-0.33-2.27-0.98
		c-0.61-0.65-0.91-1.68-0.91-3.08c0-1.4,0.27-3.39,0.81-5.96c-4.65,6.68-8.35,10.02-11.11,10.02c-1.45,0-3.18-0.94-5.21-2.81
		c-2.03-1.87-3.05-3.69-3.05-5.45c0-4.33,1.23-9.87,3.69-16.59s4.78-10.09,6.94-10.09c1.31,0,2.47,0.59,3.49,1.76
		c1.02,1.17,1.52,2.46,1.52,3.86c0,0.54-0.57,2.06-1.69,4.54c-3.43,7.45-5.15,12.71-5.15,15.78c0,0.27,0.11,0.41,0.34,0.41
		c0.68,0,1.95-1.07,3.83-3.22c1.87-2.14,3.97-5.21,6.3-9.21C246.53,147.8,248.37,143.72,249.72,139.57z"/>
	<path class="st0" d="M287.79,118.91c1.08,0,2.51,0.98,4.27,2.95c1.76,1.96,2.64,3.8,2.64,5.52c0,0.86-0.79,4.43-2.37,10.7
		c-1.58,6.28-2.53,10.07-2.84,11.38c-3.61,15.58-6.25,23.37-7.92,23.37c-0.95,0-2.01-0.56-3.18-1.69c-1.17-1.13-1.76-2.24-1.76-3.32
		c0-0.22,0.02-0.41,0.07-0.54c-4.52,3.7-7.75,5.55-9.72,5.55c-1.96,0-3.86-1.05-5.69-3.15s-2.74-4.01-2.74-5.72
		c0-1.71,0.24-3.62,0.71-5.72c0.47-2.1,1.21-4.32,2.2-6.67c0.99-2.35,2.13-4.55,3.42-6.6c1.29-2.05,2.84-3.75,4.67-5.08
		c1.83-1.33,3.71-2,5.66-2c2.89,0,5.26,1.47,7.11,4.4c2.44-10.7,3.61-17.81,3.52-21.33C285.82,119.59,286.48,118.91,287.79,118.91z
		 M267.81,164.22c1.13,0,3.04-0.97,5.72-2.91c2.69-1.94,4.68-4.4,5.99-7.38c-0.05-0.36-0.07-1.15-0.07-2.37
		c0-1.22-0.41-2.37-1.22-3.45c-0.81-1.08-1.56-1.62-2.23-1.62c-1.35,0-2.65,0.72-3.89,2.17c-1.24,1.45-2.22,3.16-2.95,5.15
		c-1.54,4.2-2.3,7.38-2.3,9.55c0,0.36,0.06,0.6,0.17,0.71C267.14,164.16,267.4,164.22,267.81,164.22z"/>
	<path class="st0" d="M303.02,137.87c1.58,0,2.99,0.9,4.23,2.71c1.24,1.81,1.86,3.54,1.86,5.21c0,0.86-0.78,3.94-2.34,9.25
		c-1.56,5.31-3.1,10.33-4.64,15.07c-0.54,1.76-1.65,2.64-3.32,2.64c-0.99,0-1.86-0.37-2.61-1.12s-1.12-1.72-1.12-2.91
		s0.58-4.18,1.73-8.94c1.15-4.76,2.03-8.83,2.64-12.19c0.61-3.36,1.17-5.82,1.69-7.38C301.68,138.65,302.3,137.87,303.02,137.87z
		 M302.01,129.41c0-1.17,0.53-2.38,1.59-3.62c1.06-1.24,2.1-1.86,3.12-1.86c1.02,0,2.22,1.22,3.62,3.66c1.4,2.44,2.1,4.21,2.1,5.32
		c0,1.11-0.36,1.95-1.08,2.54c-0.72,0.59-1.47,0.88-2.24,0.88c-1.31,0-2.82-0.86-4.54-2.57
		C302.86,132.03,302.01,130.58,302.01,129.41z"/>
	<path class="st0" d="M317.89,145.39c3.5-5.06,6.96-7.59,10.4-7.59c3.43,0,6.32,1.21,8.67,3.62c2.35,2.42,3.52,5.33,3.52,8.74
		s-0.81,6.87-2.44,10.4c-1.62,3.52-3.91,6.45-6.84,8.77c-2.94,2.33-6.07,3.49-9.41,3.49c-2.48,0-4.63-1.11-6.43-3.32
		c-1.81-2.21-2.71-4.9-2.71-8.06C312.64,155.8,314.39,150.45,317.89,145.39z M328.9,159.34c1.81-3.29,2.71-6.39,2.71-9.28
		s-0.41-4.88-1.22-5.96c-1.94,1.13-3.87,3.5-5.79,7.11c-1.92,3.61-2.88,6.78-2.88,9.52c0,2.73,0.27,4.46,0.81,5.18
		C324.97,164.83,327.09,162.64,328.9,159.34z"/>
	<path class="st0" d="M365.47,137.94c1.72,0,3.41,1.02,5.08,3.05c1.67,2.03,2.51,3.86,2.51,5.49c0,1.08-0.47,1.62-1.42,1.62
		c-0.54,0-1.33-0.21-2.37-0.64c-1.04-0.43-2.09-0.64-3.15-0.64c-1.06,0-2.62,0.36-4.67,1.08c-2.05,0.72-3.08,1.67-3.08,2.84
		c0,0.45,0.61,1.11,1.83,1.96c1.22,0.86,2.55,1.74,4,2.64c1.45,0.9,2.78,2.16,4,3.76c1.22,1.6,1.83,3.34,1.83,5.22
		c0,1.87-1.37,3.76-4.1,5.66c-2.73,1.9-5.94,2.84-9.62,2.84c-3.68,0-6.83-0.83-9.45-2.51c-2.62-1.67-3.93-3.39-3.93-5.15
		c0-1.76,0.72-2.64,2.17-2.64c0.59,0,1.29,0.23,2.1,0.68c2.26,1.31,5.07,1.96,8.43,1.96c3.36,0,5.05-0.45,5.05-1.35
		s-0.64-1.91-1.93-3.01c-1.29-1.11-2.69-2.13-4.2-3.08s-2.91-2.11-4.2-3.49c-1.29-1.38-1.93-2.72-1.93-4.03
		c0-2.44,2.21-5.09,6.64-7.96C359.46,139.38,362.94,137.94,365.47,137.94z"/>
</g>
</svg>
